PathFileType	4	(X/Y/Z)	D:\TRACE\spot_10-12-23\spot_arm_body_motion_3_4-platform.trc
DataRate	CameraRate	NumFrames	NumMarkers	Units	OrigDataRate	OrigDataStartFrame	OrigNumFrames
100.00	100.00	      24	5	mm	100.00	5251	      7000
Frame#	Time	Left_Front			Right_Front			Left_Aft			Right_Aft			Post			
		X1	Y1	Z1	X2	Y2	Z2	X3	Y3	Z3	X4	Y4	Z4	X5	Y5	Z5	

5251	52.500	-807.70587	73.98715	-621.89752	765.16864	77.72139	-614.96075	-723.99048	-42.38862	510.41690	693.19208	-46.74284	595.94281	-25.00094	840.36267	-862.94696	
5252	52.510	-808.36578	73.72126	-622.07281	764.65460	77.40497	-615.00421	-724.79926	-42.30849	510.23291	692.44550	-46.48590	595.89923	-25.64576	840.07416	-862.81042	
5253	52.520	-808.80603	73.36456	-622.04236	764.11426	77.08473	-615.02057	-725.32440	-42.31572	510.17297	691.93414	-46.14577	595.85297	-25.90861	839.30737	-863.39264	
5254	52.530	-809.48993	72.81502	-622.13141	763.53827	76.81633	-615.20996	-725.93170	-41.94573	510.09021	691.43854	-45.89874	595.85120	-26.13836	838.62555	-863.83197	
5255	52.540	-809.79071	72.62574	-622.42651	763.04596	76.41567	-615.32086	-726.43201	-41.58213	510.02609	690.97968	-45.50957	595.76410	-26.97033	838.09619	-864.59760	
5256	52.550	-810.46906	72.17839	-622.62415	762.47034	76.02524	-615.51147	-726.96460	-41.21677	509.94385	690.43854	-45.20183	595.62054	-27.19499	837.81738	-865.31995	
5257	52.560	-810.93463	71.74882	-622.55896	761.90063	75.62028	-615.69647	-727.30713	-41.01638	509.87408	689.75403	-44.88924	595.51208	-27.78525	837.23352	-866.09955	
5258	52.570	-811.51880	71.48135	-622.78357	761.40692	75.36263	-615.79651	-728.07117	-40.58728	509.76620	689.26044	-44.46745	595.47601	-28.36493	836.41443	-867.14294	
5259	52.580	-811.96857	71.02840	-622.98340	761.07343	74.91071	-616.09821	-728.52222	-40.27810	509.52292	688.88342	-44.10318	595.44318	-28.51653	836.11523	-868.06329	
5260	52.590	-812.32916	70.49793	-623.17072	760.49536	74.35279	-616.29089	-728.76160	-40.09890	509.73151	688.48730	-43.77520	595.47913	-29.33098	835.50885	-868.95801	
5261	52.600	-812.76489	70.08504	-623.18756	760.23645	73.95285	-616.34814	-729.30243	-39.52900	509.43564	688.19623	-43.30547	595.42920	-29.65330	834.84930	-869.72424	
5262	52.610	-813.19910	69.63732	-623.30389	759.88226	73.25996	-616.31622	-729.78906	-39.13830	509.27020	687.78802	-43.01103	595.36237	-29.79683	834.36328	-870.51410	
5263	52.620	-813.27380	69.03140	-623.58685	759.71008	72.75451	-616.28589	-729.94495	-38.84142	509.17673	687.31519	-42.54615	595.24420	-30.32417	833.47595	-871.31976	
5264	52.630	-813.57385	68.49622	-623.84644	759.30450	72.22079	-616.64197	-729.98175	-38.66817	509.41028	687.11200	-41.94006	595.06305	-30.56751	832.67480	-871.84290	
5265	52.640	-813.97955	67.73487	-623.69836	758.98676	71.72103	-616.90192	-730.39148	-38.10053	509.12436	686.85071	-41.43666	594.99438	-30.97514	831.88483	-872.21594	
5266	52.650	-814.29865	67.22196	-624.03223	758.74042	71.11697	-617.19861	-730.80505	-37.50046	508.94485	686.61298	-40.93445	594.89282	-29.83682	830.39667	-873.46307	
5267	52.660	-814.50867	66.82979	-624.46899	758.42725	70.48326	-617.57465	-731.09796	-37.09491	508.79291	686.36438	-40.59447	594.70410	-30.96611	829.95770	-873.69354	
5268	52.670	-814.62305	66.25388	-624.65985	758.21509	69.91573	-617.72382	-731.08350	-36.64388	508.64078	686.23193	-40.00032	594.60797	-31.58656	828.92737	-874.65887	
5269	52.680	-814.79388	65.12558	-624.88220	758.17523	69.07723	-617.94073	-731.28870	-36.18378	508.48526	686.07410	-39.35777	594.49530	-31.51972	828.00873	-875.42896	
5270	52.690	-814.79224	64.48427	-625.03967	758.16498	68.32008	-618.08557	-731.41473	-35.68780	508.39273	686.09216	-38.69358	594.48822	-31.53195	827.04468	-876.58801	
5271	52.700	-815.12982	63.85929	-625.30304	758.10181	67.76315	-618.27460	-731.52081	-35.10411	508.25735	686.08856	-37.93383	594.34625	-31.59799	826.09460	-877.91364	
5272	52.710	-815.30988	63.09116	-625.52991	757.84161	67.03091	-618.61505	-731.62793	-34.58652	508.08817	685.91058	-37.54382	594.20270	-30.05631	824.33350	-879.85431	
5273	52.720	-815.21472	62.42951	-625.66528	757.81897	66.33173	-618.92395	-731.69342	-34.20216	507.94644	685.65936	-36.72518	594.09796	-31.90750	824.06421	-880.76935	
5274	52.730	-815.28229	61.55172	-626.16656	757.80316	65.39481	-619.08173	-731.82819	-33.50530	507.85724	685.58044	-36.29972	593.78113	-32.07444	823.17212	-881.91846	
